<svg xmlns="http://www.w3.org/2000/svg" width="180" height="40" viewBox="0 0 180 40">
  <rect width="32" height="32" x="0" y="4" rx="8" fill="#21B7CD"/>
  <g transform="translate(4, 8)">
    <path d="M17.8 19.2 16 11l3.5-3.5C21 6 21.5 4 21 3c-1-.5-3 0-4.5 1.5L13 8 4.8 6.2c-.5-.1-.9.1-1.1.5l-.3.5c-.2.5-.1 1 .3 1.3L9 12l-2 3H4l-1 1 3 2 2 3 1-1v-3l3-2 3.5 5.3c.3.4.8.5 1.3.3l.5-.2c.4-.3.6-.7.5-1.2z" fill="none" stroke="#FFFFFF" stroke-width="1.5" stroke-linecap="round" stroke-linejoin="round"/>
  </g>
  <text x="44" y="28" font-family="Inter, system-ui, sans-serif" font-weight="700" font-size="22" fill="#ffffff" letter-spacing="-0.02em">Voo<tspan fill="#21B7CD">Cursos</tspan></text>
</svg>
